<svg t="1651106728744" class="icon" viewBox="0 0 1024 1024" version="1.1" xmlns="http://www.w3.org/2000/svg" p-id="3462" width="200" height="200"><path d="M775.671875 670.203125V564.734375h158.203125v105.46875H775.671875z m52.734375-158.203125V195.59375H301.0625V90.125h632.8125v421.875H828.40625zM90.125 459.265625V353.796875h158.203125v105.46875H90.125z m316.40625 210.9375H301.0625V564.734375h105.46875v105.46875zM301.0625 248.328125h105.46875v105.46875H301.0625V248.328125z m105.46875 263.671875H301.0625V406.53125h105.46875v105.46875z m52.734375 158.203125V564.734375h105.46875v105.46875H459.265625z m0-316.40625h105.46875v105.46875H459.265625V353.796875z m263.671875 421.875H617.46875V670.203125h105.46875v105.46875zM617.46875 353.796875h105.46875v105.46875H617.46875V353.796875z m105.46875 263.671875H617.46875V512h105.46875v105.46875zM195.59375 828.40625h527.34375v105.46875H90.125V512h105.46875v316.40625z" p-id="3463" fill="#ffffff"></path></svg>