<?xml version="1.0" encoding="utf-8"?>
<!-- Generator: Adobe Illustrator 17.0.0, SVG Export Plug-In . SVG Version: 6.00 Build 0)  -->
<!DOCTYPE svg PUBLIC "-//W3C//DTD SVG 1.1//EN" "http://www.w3.org/Graphics/SVG/1.1/DTD/svg11.dtd">
<svg version="1.1" id="图层_1" xmlns="http://www.w3.org/2000/svg" xmlns:xlink="http://www.w3.org/1999/xlink" x="0px" y="0px"
	 width="16332.715px" height="4561.729px" viewBox="-7562.584 -1900.364 16332.715 4561.729"
	 enable-background="new -7562.584 -1900.364 16332.715 4561.729" xml:space="preserve">
<title>OpenBlock</title>
<g>
	<g>
		<path fill="#F29218" d="M-6990.062,2654.521c-311.903,0-565.664-253.76-565.664-565.665v-3416.78
			c0-311.862,253.747-565.582,565.664-565.582h3416.698c311.903,0,565.65,253.72,565.65,565.582v3416.767
			c0,311.903-253.747,565.665-565.65,565.665h-3416.698V2654.521z"/>
		<path fill="#FFFFFF" d="M-3573.364-1886.647c307.953,0,558.792,252.087,558.792,558.724v3416.767
			c0,307.98-250.853,558.806-558.792,558.806h-3416.698c-306.718,0-558.792-250.84-558.792-558.806v-3416.767
			c0-306.636,252.087-558.724,558.792-558.724H-3573.364 M-3573.364-1900.364h-3416.698c-152.001,0-295.512,59.802-404.116,168.392
			c-108.604,108.577-168.406,252.074-168.406,404.048v3416.767c0,315.689,256.833,572.522,572.508,572.522h3416.698
			c315.689,0,572.508-256.833,572.508-572.522v-3416.767C-3000.855-1643.571-3257.689-1900.364-3573.364-1900.364
			L-3573.364-1900.364z"/>
	</g>
	<g>
		<path fill="#FFFFFF" d="M-1607.057,334.188v-495.095c0-71.035-29.229-106.423-87.892-106.423
			c-58.677,0-87.947,35.387-87.947,106.423v495.095H-1607.057L-1607.057,334.188z M-1090.332,657.997h-692.565v504.49
			c0,72.448,29.284,109.413,87.947,109.413c58.664,0,87.892-36.965,87.892-109.413V725.892h516.725v439.572
			c0,291.549-202.01,438.146-607.772,438.146c-400.934,0-601.518-152.728-601.518-456.594V-146.985
			c0-303.907,200.583-455.058,601.518-455.058c405.762,0,607.772,144.924,607.772,436.445L-1090.332,657.997L-1090.332,657.997z"/>
	</g>
	<g>
		<path fill="#FFFFFF" d="M-282.236,1168.578V-173.278c0-63.094-29.256-94.051-87.797-94.051c-60.214,0-91.061,32.397-91.061,98.742
			v1337.179c0,66.345,30.848,98.742,91.061,98.742C-311.479,1267.32-282.236,1234.922-282.236,1168.578L-282.236,1168.578z
			 M234.503,1572.762H-155.61l-44.769-72.448c-87.92,67.771-188.239,101.732-300.78,101.732
			c-132.662,0-245.188-30.957-337.84-94.188c-92.474-63.121-138.669-149.601-138.669-259.014V-302.84
			c0-92.515,36.937-164.949,109.413-218.95c74.012-53.959,161.946-80.253,266.805-80.253c143.497,0,249.906,26.294,319.227,80.253
			v-573.811h516.725L234.503,1572.762L234.503,1572.762z"/>
	</g>
	<g>
		<path fill="#FFFFFF" d="M1556.32,1572.762h-516.725v-72.448c-66.317,67.771-172.63,101.732-319.186,101.732
			c-101.732,0-189.679-26.294-265.269-81.83c-74.012-55.536-111.114-128.012-111.114-217.358V-588.148h516.711v1756.726
			c0,66.345,30.833,98.742,90.924,98.742c58.677,0,87.934-30.847,87.934-94.024V-588.148h516.725V1572.762z"/>
	</g>
	<g>
		<path fill="#FFFFFF" d="M2876.6,369.727h-516.588V-160.92c0-71.035-29.394-106.423-86.383-106.423
			c-60.227,0-89.47,35.387-89.47,106.423v1323.408c0,72.448,29.256,109.413,89.47,109.413c56.99,0,86.383-36.965,86.383-109.413
			v-522.98H2876.6v525.956c0,291.549-198.911,436.596-596.84,436.596c-408.766,0-612.326-151.178-612.326-455.058V-146.985
			c0-303.907,203.56-455.058,612.326-455.058c397.916,0,596.84,144.924,596.84,436.445V369.727z"/>
	</g>
	<g>
		<path fill="#FFFFFF" d="M3692.514,1168.578V613.351c-118.767,29.284-177.308,83.284-177.308,163.564v391.662
			c0,66.345,30.833,98.742,92.501,98.742C3664.807,1267.32,3692.514,1234.922,3692.514,1168.578L3692.514,1168.578z
			 M4209.239,1572.762h-456.594v-83.38c-38.514,75.74-149.628,112.664-331.476,112.664c-282.29,0-422.661-112.664-422.661-337.827
			V830.874c0-97.151,33.961-181.985,101.856-253.006c69.349-72.476,206.591-161.973,413.278-269.932
			c118.795-61.681,178.885-112.54,178.885-149.601V-160.92c0-71.035-29.284-106.423-87.81-106.423
			c-67.895,0-101.719,86.384-101.719,259.014c0,30.957,1.413,77.153,4.417,137.367c4.677,60.214,7.804,106.437,7.804,137.243
			h-498.25v-431.891c0-291.507,205.151-436.445,615.453-436.445c385.573,0,576.815,151.151,576.815,455.058V1572.762z"/>
	</g>
	<g>
		<path fill="#FFFFFF" d="M5353.597,1572.762h-326.895c-232.844,0-371.636-35.648-417.97-108.083
			c-46.305-70.775-69.349-209.691-69.349-414.87V-267.343h-229.84v-320.805h229.84v-435.019h516.725v435.019h279.163v320.805
			h-279.163V1046.82c0,63.258,18.325,104.859,55.537,126.476c36.937,23.029,117.094,32.37,241.951,32.37L5353.597,1572.762
			L5353.597,1572.762z"/>
	</g>
	<g>
		<path fill="#FFFFFF" d="M5959.943,1572.762h-516.684v-2160.91h516.684V1572.762L5959.943,1572.762z M5959.943-706.902h-516.684
			v-388.699h516.684V-706.902z"/>
	</g>
	<g>
		<path fill="#FFFFFF" d="M6754.13,1162.488V-160.92c0-71.035-30.806-106.423-89.347-106.423
			c-60.254,0-91.062,35.387-91.062,106.423v1323.408c0,72.448,30.806,109.413,91.062,109.413
			C6723.324,1271.901,6754.13,1234.922,6754.13,1162.488L6754.13,1162.488z M6056.998,1147.002V-146.985
			c0-303.907,205.151-455.058,615.453-455.058c157.283,0,297.653,35.511,417.997,106.409
			c120.304,69.472,180.407,180.435,180.407,330.036v1331.062c0,291.549-200.474,436.596-598.405,436.596
			C6262.149,1602.06,6056.998,1450.868,6056.998,1147.002z"/>
	</g>
	<g>
		<path fill="#FFFFFF" d="M8585.033,1572.762h-516.725V-160.92c0-66.194-29.421-98.742-89.511-98.742
			c-60.118,0-89.347,30.847-89.347,94.065v1738.36h-516.875V-588.148h516.875v72.476c67.729-57.114,174.277-86.384,319.187-86.384
			c94.092,0,178.885,26.294,257.588,77.125c78.73,52.436,118.795,129.562,118.795,229.744v1867.949H8585.033z"/>
	</g>
	<g>
		<rect x="-2500.123" y="2374.768" fill="#FFFFFF" width="11270.268" height="231.335"/>
	</g>
	<g>
		<rect x="-2500.096" y="-1843.62" fill="#FFFFFF" width="7755.115" height="232.912"/>
	</g>
	<g>
		<rect x="6410.255" y="-1843.62" fill="#FFFFFF" width="2359.876" height="232.912"/>
	</g>
	<g>
		<g>
			<path fill="#FFFFFF" d="M-5151.739,705.825v96.04h1322.969v-96.04h-52.094V333.736h-1216.217v372.089H-5151.739
				L-5151.739,705.825z M-4546.285,419.105h126.641v286.734h-138.669V419.105H-4546.285L-4546.285,419.105z M-4885.072,419.105
				h126.682v286.734h-138.587V419.105H-4885.072L-4885.072,419.105z M-4083.519,431.147v274.678H-4219.5V419.091h135.981V431.147z"
				/>
		</g>
		<g>
			<polygon fill="#FFFFFF" points="-4080.954,96.407 -4080.954,191.006 -4127.506,191.006 -4102.214,265.691 -3888.833,265.691 
				-3888.833,-351.615 -4246.274,-351.615 -4246.274,-285.037 -4080.954,-285.037 			"/>
		</g>
		<g>
			<polygon fill="#FFFFFF" points="-4130.208,-167.709 -4297.009,-167.709 -4297.009,-351.615 -4489.021,-351.615 
				-4489.021,191.006 -4510.28,191.006 -4510.28,265.691 -4297.009,265.691 -4297.009,84.35 -4130.208,84.35 -4130.208,19.007 
				-4297.009,19.007 -4297.009,-103.697 -4130.208,-103.697 			"/>
		</g>
		<g>
			<polygon fill="#FFFFFF" points="-4906.428,-338.324 -5095.737,-338.324 -5095.737,265.691 -4803.749,265.691 -4803.749,180.431 
				-4906.428,180.431 -4906.428,6.964 -4803.749,6.964 -4803.749,-78.267 -4906.428,-78.267 			"/>
		</g>
		<g>
			<polygon fill="#FFFFFF" points="-4855.815,-253.065 -4753.027,-253.065 -4753.027,265.691 -4559.672,265.691 -4559.672,-338.324 
				-4855.815,-338.324 			"/>
		</g>
		<g>
			<polygon fill="#FFFFFF" points="-5685.116,-43.758 -5833.25,-277.026 -6027.976,-277.026 -5887.949,-43.758 			"/>
		</g>
		<g>
			<rect x="-6202.609" y="189.662" fill="#FFFFFF" width="101.279" height="612.134"/>
		</g>
		<g>
			<rect x="-6657.42" y="189.662" fill="#FFFFFF" width="104.05" height="612.134"/>
		</g>
		<g>
			<polygon fill="#FFFFFF" points="-5426.554,801.865 -5426.554,443.053 -5335.782,443.053 -5335.782,341.719 -5426.554,341.719 
				-5426.554,-353.055 -5681.316,-353.055 -5650.62,-310.439 -5650.62,341.719 -6015.92,341.719 -6015.92,443.053 -5650.62,443.053 
				-5650.62,801.865 			"/>
		</g>
		<g>
			<path fill="#FFFFFF" d="M-6272.054,801.865V121.686h176.142V27.017h-176.142v-258.699l128.108-20.053l36.005-86.603
				c-201.461,14.621-345.453,18.681-549.479,18.681v86.713h170.655V27.017h-174.702v94.668h174.702v680.179H-6272.054z"/>
		</g>
		<g>
			<polygon fill="#FFFFFF" points="-5678.505,260.424 -5826.652,28.348 -6021.338,28.348 -5881.311,260.424 			"/>
		</g>
		<g>
			<polygon fill="#FFFFFF" points="-7121.517,1460.661 -7121.517,1049.893 -7053.554,1049.893 -7053.554,1225.924 
				-6797.461,1049.893 -6697.443,1049.893 -6994.849,1247.308 -6664.141,1460.661 -6778.766,1460.661 -7053.554,1276.646 
				-7053.554,1460.661 			"/>
		</g>
		<g>
			<path fill="#FFFFFF" d="M-7040.167,1249.982l-1.358,1.221l270.741,182.808h13.387L-7040.167,1249.982L-7040.167,1249.982z
				 M-7094.825,1077.887v356.138h13.387v-356.138H-7094.825L-7094.825,1077.887z M-7149.525,1460.661v-437.446h124.076v150.63
				l219.91-150.63h200.104l-338.677,224.093l373.434,241.375h-216.097l-238.673-160.08v160.08h-124.076V1460.661z"/>
		</g>
		<g>
			<polygon fill="#FFFFFF" points="-6452.132,1460.661 -6452.132,1049.893 -6057.315,1049.893 -6057.315,1104.579 
				-6384.086,1104.579 -6384.086,1219.286 -6083.979,1219.286 -6083.979,1273.944 -6384.086,1273.944 -6384.086,1404.659 
				-6053.269,1404.659 -6053.269,1460.661 			"/>
		</g>
		<g>
			<path fill="#FFFFFF" d="M-6425.358,1077.887v356.138h344.054v-1.372h-330.667v-354.766H-6425.358L-6425.358,1077.887z
				 M-6480.017,1460.661v-437.446h450.71v109.358h-326.662v59.939h298.653v109.317h-298.653v74.821h330.694v112.033h-454.742
				V1460.661z"/>
		</g>
		<g>
			<path fill="#FFFFFF" d="M-5783.899,1148.525c0,9.45,0,21.383,0,36.005v276.132h-57.375v-410.782h56.003l198.759,268.067
				l186.717-268.067h62.669v410.782h-62.669v-276.132c0-3.964,0-13.277,1.249-27.994c1.344-13.305-11.933-6.529-11.933-6.529
				c-4.046,7.983-7.983,13.277-10.685,18.654l-157.336,227.906h-17.461l-162.617-222.721l-2.702-2.606
				C-5761.281,1171.252-5785.257,1135.248-5783.899,1148.525z"/>
		</g>
		<g>
			<path fill="#FFFFFF" d="M-5385.146,1077.887l-31.958,45.345l3.937-1.372h14.635c7.982,1.372,14.731,4.074,20.025,12.043
				c5.391,5.391,7.983,13.387,7.983,24.072l-1.372,17.214v258.822h6.776v-356.137h-20.025V1077.887z M-5755.891,1224.69v263.993
				h-113.363v-465.468h97.412l185.345,246.684l171.985-246.683h105.38v465.468h-118.767v-262.759l-135.995,198.759h-45.345
				L-5755.891,1224.69L-5755.891,1224.69z M-5811.907,1164.504v-13.264c-1.358-21.37,7.983-32.041,26.637-33.275
				c8.01,0,16.007,5.267,23.989,11.906l-38.707-51.984h-14.608v356.138h2.702v-269.521H-5811.907z"/>
		</g>
		<g>
			<path fill="#FFFFFF" d="M-4514.354,1460.661v-410.782h42.643l308.2,274.787c6.625,6.529,14.635,14.512,22.618,22.618
				l18.653-11.906c-1.344-14.855-1.344-34.784-1.344-60.063v-225.423h62.669v410.782h-38.72l-314.729-285.459l-6.638-6.529
				c-7.983-6.748-32.068-10.685-32.068,0c1.372,14.525,1.372,30.6,1.372,50.626v241.375h-62.655V1460.661z"/>
		</g>
		<g>
			<path fill="#FFFFFF" d="M-4486.318,1077.887v356.138h6.748v-241.512c0-6.639,0-14.621-1.467-22.604l4.032-17.351h1.372
				c5.294-9.341,13.277-14.717,23.948-17.323c6.638-1.344,12.015,0,18.695,0c10.671,2.606,22.7,6.666,29.339,13.277l314.729,285.5
				h1.344v-356.137h-7.983v197.429c0,15.952,0,26.513,0,33.289c0,9.341,0,17.323,1.372,24.058
				c1.344,10.685-4.073,18.654-10.712,26.554l-14.622,9.423c-6.749,3.936-14.717,6.625-20.012,6.625
				c-8.011,0-16.089-2.702-22.728-9.341l-10.671-10.658l-9.204-9.341l-300.217-268.067h-3.963V1077.887z M-4542.349,1460.661
				v-437.446h81.432l310.669,277.38l-1.358-25.279v-252.101h118.685v465.468h-75.932l-314.825-284.128v284.128h-118.671
				L-4542.349,1460.661L-4542.349,1460.661z"/>
		</g>
		<g>
			<polygon fill="#FFFFFF" points="-5125.117,1460.661 -5125.117,1049.893 -4729.038,1049.893 -4729.038,1104.579 
				-5057.071,1104.579 -5057.071,1219.286 -4757.073,1219.286 -4757.073,1273.944 -5057.071,1273.944 -5057.071,1404.659 
				-4726.35,1404.659 -4726.35,1460.661 			"/>
		</g>
		<g>
			<path fill="#FFFFFF" d="M-5097.081,1077.887v356.138h342.723v-1.372h-329.473v-354.766H-5097.081L-5097.081,1077.887z
				 M-5153.111,1460.661v-437.446h450.71v109.358h-326.771v59.939h300.135v109.317h-300.135v74.821h330.804v112.033h-454.756
				v-28.021H-5153.111z"/>
		</g>
		<g>
			<path fill="#FFFFFF" d="M-3470.095,1107.253h-320.106v296.034h320.106v-120.002h-166.691v-51.984h234.655v132.072
				c0,37.335-6.666,62.531-20.025,75.918c-13.277,14.731-39.941,21.37-75.946,21.37h-265.433c-37.349,0-62.669-7.983-76.028-21.37
				c-13.277-13.387-19.957-38.583-19.957-75.918v-214.848c0-37.349,6.666-62.641,19.957-77.249
				c13.36-13.387,38.679-20.053,76.028-20.053h265.433c36.005,0,61.297,6.666,74.684,20.053
				c14.608,13.236,21.287,37.349,21.287,71.954v10.698l-67.963-1.372L-3470.095,1107.253L-3470.095,1107.253z"/>
		</g>
		<g>
			<path fill="#FFFFFF" d="M-3442.087,1091.274l-1.303-1.344v36.005h12.015c0-7.983-1.372-13.387-2.702-18.681
				C-3436.779,1099.27-3439.468,1093.866-3442.087,1091.274L-3442.087,1091.274z M-3443.39,1403.287v17.351h1.303
				c2.62-3.964,5.308-9.341,7.997-17.351c2.702-10.671,3.936-23.962,3.936-39.914v-104.16h-13.25v144.073H-3443.39z
				 M-3790.201,1431.295h-1.234c7.873,0,17.214,1.372,27.898,1.372h265.433c10.671,0,19.916-1.372,27.994-1.372H-3790.201
				L-3790.201,1431.295z M-3818.195,1107.253v-17.31l-1.33,1.344c-2.633,2.592-5.294,9.231-8.01,17.351
				c-2.702,9.341-4.047,22.59-4.047,39.9v214.848c0,15.952,1.344,29.242,4.047,39.914c2.702,7.997,5.376,13.387,8.01,17.351h1.33
				V1107.253L-3818.195,1107.253z M-3774.208,1079.245h286.803H-3774.208L-3774.208,1079.245z M-3498.09,1133.904h-265.433v241.375
				h265.433v-64.109h-165.471v-107.986h288.202v160.19c0,21.26-1.372,38.57-5.404,54.549c-5.294,17.433-11.906,30.71-22.728,41.395
				c-9.231,10.671-23.962,17.214-41.271,22.59c-14.622,4.06-33.413,5.404-53.328,5.404h-265.433
				c-20.025,0-38.679-1.344-53.328-5.404c-17.31-5.377-32.041-13.25-41.381-22.59c-10.685-10.685-17.323-25.292-22.617-42.643
				c-4.046-14.731-5.391-32.041-5.391-53.3v-214.848c0-21.246,1.344-38.57,5.391-54.658c5.294-17.31,11.933-30.697,22.617-41.272
				c9.341-10.685,24.058-18.654,41.381-22.714c14.649-3.964,33.303-6.666,53.328-6.666h265.433c19.916,0,37.349,2.702,53.328,6.666
				c17.31,4.046,30.697,12.015,41.271,21.342c9.45,10.712,17.433,23.989,22.728,40.051c4.032,14.608,5.404,31.958,5.404,51.956
				v37.335h-122.731V1133.904z"/>
		</g>
		<g>
			<path fill="#FFFFFF" d="M-3672.75-875.87L-3672.75-875.87c-148.037,0-268.149-120.016-268.149-268.039
				c0-148.037,120.111-268.039,268.149-268.039c146.666,0,266.695,120.002,266.695,268.039
				C-3406.055-995.885-3526.084-875.87-3672.75-875.87L-3672.75-875.87z M-3672.75-1442.549
				c-165.457,0-298.763,133.306-298.763,298.626c0,164.126,133.306,298.75,298.763,298.75c163.989,0,297.406-134.623,297.406-298.75
				C-3375.345-1309.242-3508.775-1442.549-3672.75-1442.549z"/>
		</g>
		<g>
			<path fill="#FFFFFF" d="M-3767.57-1165.169h102.802c21.383,0,38.57-2.702,50.612-6.748c12.042-3.936,21.397-11.906,28.008-21.37
				c6.748-10.603,9.341-21.274,9.341-33.289c0-15.993-6.625-30.6-18.681-41.395c-12.015-10.712-32.041-15.87-58.595-15.87h-113.473
				v118.672H-3767.57z M-3815.493-963.845v-360.033h160.053c31.931,0,56.003,2.702,73.217,9.341
				c16.089,6.639,29.366,17.214,40.161,34.523c9.341,16.089,14.635,34.743,14.635,53.438c0,26.623-7.997,48.02-25.43,65.343
				c-15.842,17.31-41.272,28.008-75.905,33.412c12.015,6.639,21.246,11.906,27.885,17.31c14.731,13.277,28.104,29.366,40.161,48.047
				l62.641,98.618h-60.076l-47.883-74.684c-13.497-21.356-25.429-38.679-34.77-49.364c-7.983-11.906-16.061-20.025-23.962-25.43
				c-6.748-3.936-13.387-6.529-21.37-9.203c-5.294-1.468-14.758-1.468-26.774-1.468h-54.658v160.162h-47.924V-963.845z"/>
		</g>
	</g>
</g>
</svg>
